:SAMPLES-PER-SECOND 30
:FULLY-SPECIFIED
:DEGREES
333
root  30.2859 38.8973 -10.1238 -4.72644 -24.8938 2.43698
RightUpLeg  -12.845 -34.9924 -4.10789
RightLeg  30.9121 -7.8392 -5.28483
RightFoot  -14.0894 -0.130778 -1.47681
RightToes  0.00048216 0.542163 -0.142577
Spine  21.3954 0.55317 0.813853
Spine1  3.9263 2.03563 -5.24962
HEad  -16.1355 -27.7882 18.313
LeftShoulder1  10.0652 -15.7303 -45.624
LeftArm  -20.0278 37.3458 -12.5483
LeftForeArm  66.5431 -79.0965 -82.3324
LeftHand  -0.25398 0.0180481 5.50724
RightShoulder  6.13511 10.4645 37.8819
RightArm  -1.19228 -6.64256 32.972
RightForeArm  1.40738 71.2439 37.526
RightHand  -0.239333 -16.4943 1.20493
LeftUpLeg  -5.53718 16.3966 19.3966
LeftLeg  12.4011 6.02343 1.02588
LeftFoot  0.299428 0.754243 -7.39244
LeftToes  1.06244e-005 4.65855e-005 -8.18506e-006
334
root  29.4925 39.0808 -10.0013 -5.37691 -30.4031 2.64494
RightUpLeg  -10.9798 -32.5037 -3.11013
RightLeg  28.7679 -5.67445 -3.61995
RightFoot  -14.4938 -0.149186 -1.86244
RightToes  0.00048216 0.542163 -0.142577
Spine  20.9722 0.462921 3.00675
Spine1  4.1497 2.57624 -5.95023
HEad  -15.539 -27.82 17.9288
LeftShoulder1  10.0905 -15.8315 -45.494
LeftArm  -19.3988 36.7344 -12.6781
LeftForeArm  63.6517 -79.0095 -79.4401
LeftHand  -0.25398 0.0180481 5.50724
RightShoulder  6.10622 10.4622 37.6893
RightArm  -2.04565 -7.13337 33.198
RightForeArm  1.73037 71.6641 38.7175
RightHand  -0.154733 -16.7666 0.328062
LeftUpLeg  -7.65611 15.811 16.7261
LeftLeg  19.2958 -0.592658 0.276894
LeftFoot  -0.040234 0.830764 -8.38204
LeftToes  1.06244e-005 4.65855e-005 -8.18506e-006
335
root  28.635 39.3474 -9.81727 -6.06625 -36.4703 3.37065
RightUpLeg  -8.58586 -30.1471 -2.65175
RightLeg  25.7497 -3.02966 -1.83504
RightFoot  -14.641 -0.151186 -1.8111
RightToes  0.00048216 0.542163 -0.142577
Spine  20.2706 0.722905 4.46289
Spine1  4.47245 3.39192 -7.07099
HEad  -14.5404 -26.9126 17.1293
LeftShoulder1  10.0289 -15.7566 -45.3885
LeftArm  -18.9768 36.2071 -12.9825
LeftForeArm  61.8452 -78.9405 -77.5626
LeftHand  -0.25398 0.0180481 5.50724
RightShoulder  6.10183 10.5462 37.4064
RightArm  -2.4244 -7.14789 33.2379
RightForeArm  1.3327 71.6916 38.8696
RightHand  -0.141691 -17.2529 0.163932
LeftUpLeg  -9.4692 15.9778 13.3815
LeftLeg  24.6957 0.388431 0.55308
LeftFoot  -0.313723 0.757858 -7.8191
LeftToes  1.06244e-005 4.65855e-005 -8.18506e-006
336
root  27.6897 39.6162 -9.58098 -6.88986 -42.4261 4.50629
RightUpLeg  -5.64366 -26.9785 -2.99681
RightLeg  22.299 -0.855115 0.286339
RightFoot  -14.8786 -0.122587 -0.728669
RightToes  0.00048216 0.542163 -0.142577
Spine  19.1852 1.13246 5.17635
Spine1  4.92735 4.1415 -8.04393
HEad  -13.2898 -25.4325 16.1252
LeftShoulder1  9.97892 -15.6377 -45.4454
LeftArm  -18.6091 36.009 -13.0049
LeftForeArm  61.4006 -78.9202 -77.1162
LeftHand  -0.25398 0.0180481 5.50724
RightShoulder  6.03132 10.5274 36.9758
RightArm  -2.25568 -6.77987 33.3249
RightForeArm  -0.0456027 71.5479 38.6487
RightHand  -0.0133041 -17.1793 -1.07677
LeftUpLeg  -11.5541 17.2367 9.37926
LeftLeg  28.168 3.24203 2.209
LeftFoot  -0.825157 0.602122 -6.4845
LeftToes  1.06244e-005 4.65855e-005 -8.18506e-006
337
root  26.674 39.8218 -9.28615 -7.71103 -47.9882 5.57889
RightUpLeg  -2.40325 -20.0209 -3.68184
RightLeg  18.7451 -2.34342 2.57882
RightFoot  -15.2564 -0.0674096 1.05147
RightToes  0.00048216 0.542163 -0.142577
Spine  17.8151 1.46184 5.95382
Spine1  5.55446 4.77101 -8.96738
HEad  -11.9376 -23.8249 14.9587
LeftShoulder1  9.9738 -15.5454 -45.6499
LeftArm  -18.2651 36.0168 -12.7542
LeftForeArm  61.8492 -78.9327 -77.765
LeftHand  -0.25398 0.0180481 5.50724
RightShoulder  5.91423 10.3967 36.5506
RightArm  -1.93985 -6.34084 33.4345
RightForeArm  -1.15852 71.5882 38.9447
RightHand  0.197738 -16.3101 -3.21943
LeftUpLeg  -13.867 19.0015 5.3217
LeftLeg  29.7113 4.92306 3.36281
LeftFoot  -1.11263 0.46949 -5.17432
LeftToes  1.06244e-005 4.65855e-005 -8.18506e-006
338
root  25.5957 39.9673 -8.96595 -8.75136 -53.3092 6.62146
RightUpLeg  0.778624 -13.341 -3.66749
RightLeg  15.1557 -3.85855 4.07682
RightFoot  -15.4548 -0.0304497 2.07228
RightToes  0.00048216 0.542163 -0.142577
Spine  16.647 1.73414 6.80733
Spine1  6.09679 5.31723 -9.8158
HEad  -10.5392 -22.0528 13.529
LeftShoulder1  9.96244 -15.4245 -45.8979
LeftArm  -18.2413 36.1584 -12.6176
LeftForeArm  62.4364 -78.9554 -78.7753
LeftHand  -0.25398 0.0180481 5.50724
RightShoulder  5.84204 10.2811 36.3887
RightArm  -1.75835 -6.03303 33.3658
RightForeArm  -0.61178 71.9343 39.9491
RightHand  0.251224 -15.9819 -3.86933
LeftUpLeg  -15.885 21.0155 1.41915
LeftLeg  28.8657 5.30871 3.49755
LeftFoot  -1.08704 0.408287 -4.47612
LeftToes  1.06244e-005 4.65855e-005 -8.18506e-006
339
root  24.4323 40.0385 -8.66485 -10.3476 -58.431 7.98259
RightUpLeg  3.94502 -9.60472 -3.1857
RightLeg  12.1765 -3.07934 4.46893
RightFoot  -15.4514 -0.0499124 1.52155
RightToes  0.00048216 0.542163 -0.142577
Spine  15.8594 2.07621 7.19664
Spine1  6.41697 5.76336 -10.2082
HEad  -9.22472 -19.9581 12.0493
LeftShoulder1  9.89753 -15.2594 -46.0037
LeftArm  -18.6756 36.4565 -12.8194
LeftForeArm  63.0137 -78.9777 -79.8817
LeftHand  -0.25398 0.0180481 5.50724
RightShoulder  5.85203 10.2482 36.5578
RightArm  -1.76257 -5.94365 33.152
RightForeArm  1.05779 72.5005 41.5988
RightHand  0.207604 -16.7358 -3.2228
LeftUpLeg  -17.3527 22.6303 -2.17554
LeftLeg  25.5699 5.28407 3.08072
LeftFoot  -1.12161 0.419168 -4.62507
LeftToes  1.06244e-005 4.65855e-005 -8.18506e-006
340
root  23.1623 40.0082 -8.38811 -12.3044 -63.1588 9.61459
RightUpLeg  7.00502 -8.54034 -2.7103
RightLeg  10.1954 -0.42498 4.24929
RightFoot  -15.5246 -0.105911 -0.0213101
RightToes  0.00048216 0.542163 -0.142577
Spine  15.0365 2.4515 7.22582
Spine1  6.82579 6.12771 -10.2471
HEad  -8.16171 -17.7665 10.9376
LeftShoulder1  9.77774 -15.095 -45.8438
LeftArm  -19.2537 36.7623 -13.1215
LeftForeArm  64.4205 -79.0139 -81.7722
LeftHand  -0.25398 0.0180481 5.50724
RightShoulder  5.89719 10.2431 36.8926
RightArm  -1.91672 -6.07034 33.0182
RightForeArm  2.39952 73.1782 43.9373
RightHand  0.300406 -17.047 -4.08626
LeftUpLeg  -18.3954 23.8274 -5.36363
LeftLeg  20.3644 4.34239 2.27766
LeftFoot  -1.31967 0.454208 -5.15604
LeftToes  1.06244e-005 4.65855e-005 -8.18506e-006
341
root  21.8148 39.8926 -8.11306 -14.2145 -67.2962 11.1947
RightUpLeg  9.88974 -8.20227 -2.42671
RightLeg  9.05743 2.00989 4.05463
RightFoot  -15.8751 -0.171788 -1.62131
RightToes  0.00048216 0.542163 -0.142577
Spine  14.051 2.66125 7.41349
Spine1  7.55177 6.41177 -10.414
HEad  -7.44619 -15.8215 10.2742
LeftShoulder1  9.6219 -14.9085 -45.5607
LeftArm  -19.6372 36.7993 -13.1879
LeftForeArm  67.3901 -79.0717 -85.0587
LeftHand  -0.25398 0.0180481 5.50724
RightShoulder  5.91592 10.1902 37.186
RightArm  -2.07856 -6.25927 32.9824
RightForeArm  3.37987 73.8473 46.6567
RightHand  0.513717 -16.1996 -6.50606
LeftUpLeg  -18.7827 22.0703 -6.96384
LeftLeg  14.0083 4.76717 0.534086
LeftFoot  -1.33592 0.458827 -5.19388
LeftToes  1.06244e-005 4.65855e-005 -8.18506e-006
342
root  20.435 39.7114 -7.83076 -16.0382 -70.6671 12.5844
RightUpLeg  12.6737 -8.2143 -2.4984
RightLeg  8.7002 3.62293 4.11259
RightFoot  -16.6658 -0.250409 -2.9542
RightToes  0.00048216 0.542163 -0.142577
Spine  13.3176 2.60002 7.64095
Spine1  8.33533 6.44583 -10.5265
HEad  -7.09029 -14.1745 9.82189
LeftShoulder1  9.44983 -14.6492 -45.3792
LeftArm  -19.8824 36.4754 -13.1137
LeftForeArm  71.3326 -79.1085 -89.0711
LeftHand  -0.25398 0.0180481 5.50724
RightShoulder  5.90161 10.1096 37.3316
RightArm  -2.10709 -6.33127 32.8651
RightForeArm  4.76943 74.3518 48.8727
RightHand  0.568909 -15.9426 -7.24145
LeftUpLeg  -17.7938 10.5852 -4.0813
LeftLeg  7.21073 14.8269 -3.24259
LeftFoot  -1.0776 0.441053 -4.83198
LeftToes  1.06244e-005 4.65855e-005 -8.18506e-006
343
root  19.0011 39.4433 -7.55415 -17.8212 -73.1201 13.7616
RightUpLeg  15.3789 -8.53732 -2.88534
RightLeg  9.2792 4.50567 4.34622
RightFoot  -17.8898 -0.343198 -3.88778
RightToes  0.00048216 0.542163 -0.142577
Spine  12.8749 2.38463 7.33873
Spine1  8.96488 6.09384 -10.0078
HEad  -6.93503 -12.8134 9.50814
LeftShoulder1  9.28619 -14.3933 -45.225
LeftArm  -20.1073 35.9264 -13.2225
LeftForeArm  74.9743 -79.1056 -92.5843
LeftHand  -0.25398 0.0180481 5.50724
RightShoulder  5.89426 10.0931 37.3303
RightArm  -2.15131 -6.38033 32.6701
RightForeArm  6.36782 74.6564 50.1956
RightHand  0.460466 -17.3607 -5.48343
LeftUpLeg  -17.6485 2.31206 -2.19176
LeftLeg  1.47291 22.7829 -6.20414
LeftFoot  -1.29532 0.477141 -5.35764
LeftToes  1.06244e-005 4.65855e-005 -8.18506e-006
